<svg id="svg" version="1.1" xmlns="http://www.w3.org/2000/svg" xmlns:xlink="http://www.w3.org/1999/xlink" width="400" height="400" viewBox="0, 0, 400,400"><g id="svgg"><path id="path0" d="M84.686 62.527 C 83.677 62.765,83.641 62.818,83.064 64.898 C 76.450 88.732,77.717 113.624,86.005 122.686 L 86.830 123.589 91.756 149.436 C 94.465 163.651,96.728 175.409,96.785 175.564 C 96.864 175.781,98.438 175.847,103.611 175.847 L 110.335 175.847 110.461 175.339 C 110.530 175.059,111.905 168.888,113.517 161.625 C 116.394 148.658,117.314 144.227,118.298 138.600 C 118.570 137.049,118.875 135.688,118.977 135.577 C 119.200 135.333,119.172 135.205,120.317 141.535 C 120.822 144.328,122.660 152.912,124.402 160.609 C 126.143 168.307,127.625 174.884,127.695 175.226 L 127.822 175.847 134.735 175.846 L 141.648 175.845 146.689 148.476 C 149.461 133.422,151.779 120.928,151.839 120.711 C 151.942 120.343,151.593 120.316,146.746 120.316 L 141.544 120.316 141.425 120.824 C 141.053 122.421,136.847 149.086,135.816 156.385 C 134.665 164.537,134.489 165.490,134.189 165.190 C 134.122 165.123,133.268 161.068,132.291 156.179 C 130.946 149.451,125.050 123.478,124.239 120.711 C 124.128 120.331,114.673 120.055,114.673 120.431 C 114.673 120.494,113.198 126.756,111.395 134.347 C 109.592 141.937,107.353 151.964,106.419 156.627 C 104.780 164.807,104.634 165.432,104.414 165.212 C 104.327 165.124,102.915 155.768,102.238 150.790 C 101.972 148.839,97.571 121.588,97.398 120.824 L 97.283 120.316 91.998 120.316 L 86.714 120.316 85.697 118.679 C 82.047 112.805,80.599 103.589,81.254 90.393 C 81.699 81.436,83.595 69.680,85.333 65.110 L 85.566 64.497 90.356 64.627 C 105.411 65.038,124.664 70.768,135.639 78.104 C 138.597 80.082,139.382 80.302,139.764 79.262 C 140.436 77.432,129.254 71.293,119.124 67.931 C 107.317 64.012,89.939 61.285,84.686 62.527 M287.246 62.652 C 272.869 63.997,255.159 69.663,245.849 75.896 C 242.752 77.970,242.405 78.299,242.482 79.092 C 242.608 80.385,243.442 80.187,246.451 78.149 C 257.981 70.341,280.892 63.929,295.176 64.513 L 296.785 64.578 297.822 68.802 C 302.793 89.056,302.117 110.232,296.216 119.119 L 295.421 120.316 274.347 120.316 L 253.273 120.316 253.273 124.944 L 253.273 129.571 261.174 129.571 L 269.074 129.571 269.074 152.709 L 269.074 175.847 274.492 175.847 L 279.910 175.847 279.910 152.709 L 279.910 129.571 287.810 129.571 L 295.711 129.571 295.711 126.333 C 295.711 123.320,295.744 123.065,296.189 122.665 C 304.264 115.404,305.625 87.780,299.047 64.673 C 298.329 62.150,296.307 61.804,287.246 62.652 M287.091 72.912 C 280.734 77.123,266.113 92.340,266.732 94.102 L 266.940 94.695 269.983 94.757 C 273.836 94.834,273.557 94.680,273.636 96.772 L 273.702 98.533 275.353 98.464 L 277.005 98.396 277.922 99.314 C 278.933 100.324,278.934 100.340,278.301 103.202 C 277.708 105.879,278.734 107.272,280.622 106.358 C 283.514 104.958,285.955 107.974,284.902 111.646 C 284.344 113.592,286.099 113.670,287.852 111.776 C 293.248 105.948,294.825 97.997,293.211 84.763 C 291.902 74.026,290.247 70.821,287.091 72.912 M290.061 78.704 C 290.515 80.788,291.303 86.705,291.515 89.616 L 291.638 91.309 291.310 90.068 C 291.129 89.385,290.831 87.394,290.647 85.644 C 289.760 77.178,289.217 75.287,287.802 75.736 C 287.173 75.936,287.254 75.611,287.980 75.020 L 288.600 74.515 289.114 75.611 C 289.396 76.214,289.823 77.606,290.061 78.704 M90.802 75.000 C 90.440 75.457,90.130 76.650,89.410 80.364 C 86.425 95.773,87.993 105.573,94.547 112.472 C 96.665 114.702,97.968 113.959,97.621 110.720 C 97.432 108.952,97.582 108.474,98.435 108.120 C 99.089 107.849,101.262 107.911,102.038 108.223 C 103.093 108.647,103.492 107.069,102.938 104.668 C 102.314 101.964,102.821 100.771,104.483 101.037 C 105.738 101.238,106.095 100.909,106.095 99.552 C 106.095 97.527,107.402 96.862,110.461 97.330 C 113.209 97.751,113.353 97.366,111.710 93.993 C 108.745 87.905,92.368 73.027,90.802 75.000 M255.693 77.780 C 253.923 79.056,253.570 79.665,254.221 80.316 C 255.251 81.346,259.408 78.423,258.893 77.032 C 258.571 76.162,257.632 76.381,255.693 77.780 M285.986 81.264 C 285.976 82.323,285.938 82.431,285.729 81.998 C 285.594 81.718,285.395 81.490,285.287 81.490 C 284.747 81.490,284.649 80.321,285.156 79.911 C 285.821 79.372,286.001 79.665,285.986 81.264 M91.798 81.813 C 91.577 82.389,91.250 82.216,91.370 81.587 C 91.444 81.199,91.556 81.082,91.707 81.233 C 91.832 81.358,91.872 81.619,91.798 81.813 M96.614 82.957 C 96.849 83.240,96.816 83.296,96.416 83.296 C 96.141 83.296,95.937 83.152,95.937 82.957 C 95.937 82.771,96.026 82.619,96.135 82.619 C 96.244 82.619,96.459 82.771,96.614 82.957 M285.938 85.607 C 285.884 85.888,285.838 85.711,285.836 85.214 C 285.833 84.718,285.877 84.488,285.934 84.704 C 285.990 84.920,285.992 85.326,285.938 85.607 M277.652 87.725 C 277.652 88.228,277.601 88.274,277.311 88.034 C 277.051 87.818,277.031 87.677,277.226 87.442 C 277.586 87.007,277.652 87.051,277.652 87.725 M288.687 91.084 C 288.698 92.698,288.608 94.170,288.488 94.357 C 288.342 94.582,288.275 93.411,288.288 90.858 C 288.299 88.589,288.381 87.251,288.488 87.585 C 288.587 87.895,288.677 89.470,288.687 91.084 M280.374 90.406 C 280.216 92.679,279.899 91.658,279.928 88.967 C 279.945 87.382,279.968 87.300,280.223 87.923 C 280.405 88.367,280.457 89.223,280.374 90.406 M283.747 87.558 C 283.747 87.668,283.538 87.812,283.283 87.879 C 282.902 87.979,282.866 87.943,283.085 87.680 C 283.383 87.321,283.747 87.254,283.747 87.558 M93.893 91.398 C 94.338 92.270,94.338 92.277,93.897 92.393 C 93.534 92.488,93.454 92.394,93.454 91.871 C 93.454 91.520,93.392 91.073,93.317 90.876 C 93.045 90.168,93.455 90.539,93.893 91.398 M104.289 91.703 C 104.289 91.829,104.139 91.805,103.950 91.648 C 103.764 91.493,103.612 91.265,103.612 91.141 C 103.612 91.015,103.761 91.040,103.950 91.196 C 104.137 91.351,104.289 91.579,104.289 91.703 M105.814 92.494 C 105.948 92.900,105.302 92.842,104.948 92.416 C 104.687 92.102,104.717 92.066,105.185 92.134 C 105.480 92.177,105.763 92.339,105.814 92.494 M109.707 94.833 C 109.707 94.944,109.453 95.034,109.142 95.034 C 108.534 95.034,108.508 94.978,108.730 94.151 L 108.875 93.606 109.291 94.119 C 109.520 94.401,109.707 94.723,109.707 94.833 M98.292 103.814 C 98.443 104.058,97.787 104.343,97.493 104.161 C 97.378 104.090,97.342 103.937,97.414 103.822 C 97.579 103.554,98.129 103.549,98.292 103.814 M227.981 119.647 C 212.845 121.748,203.574 136.514,206.191 154.353 C 208.567 170.558,222.867 180.362,237.810 176.033 C 242.467 174.683,249.498 169.715,248.514 168.468 C 248.338 168.245,247.044 166.712,245.637 165.062 L 243.081 162.063 241.854 163.184 C 235.588 168.911,227.111 168.942,221.864 163.257 C 214.759 155.561,215.570 138.040,223.319 131.807 C 228.683 127.493,235.338 127.874,241.443 132.844 L 242.142 133.412 244.974 129.968 L 247.806 126.524 247.123 125.805 C 242.808 121.258,234.841 118.695,227.981 119.647 M171.031 120.482 C 170.973 120.577,167.001 132.946,162.204 147.968 C 157.407 162.991,153.438 175.409,153.385 175.564 C 153.308 175.785,154.501 175.846,158.867 175.844 L 164.447 175.842 166.370 168.790 L 168.294 161.738 177.366 161.679 L 186.437 161.620 186.693 162.582 C 187.171 164.378,190.083 175.054,190.204 175.451 C 190.308 175.793,201.806 176.129,201.806 175.790 C 201.806 175.759,197.809 163.290,192.925 148.081 L 184.043 120.429 177.590 120.369 C 174.041 120.336,171.089 120.387,171.031 120.482 M179.410 135.835 C 180.425 139.777,181.872 145.228,182.626 147.947 C 183.631 151.570,183.926 152.937,183.729 153.059 C 183.382 153.273,170.927 153.309,170.804 153.096 C 170.753 153.007,171.408 150.446,172.260 147.404 C 173.113 144.362,174.526 139.029,175.401 135.553 C 177.211 128.365,177.124 128.668,177.376 128.668 C 177.481 128.668,178.396 131.893,179.410 135.835 M171.048 221.768 C 168.622 222.632,168.236 224.264,168.589 232.142 C 168.870 238.406,169.117 237.881,165.787 238.085 C 162.688 238.275,162.754 238.351,162.754 234.558 C 162.754 229.581,162.085 228.414,158.648 227.393 C 156.065 226.626,155.346 227.556,155.062 232.033 C 154.767 236.680,153.461 240.826,150.482 246.580 C 148.159 251.066,148.926 253.552,152.647 253.595 C 155.337 253.627,156.929 252.187,159.247 247.629 C 161.191 243.807,160.839 244.027,164.746 244.183 C 169.173 244.360,168.879 244.026,169.201 249.240 C 169.514 254.298,169.708 253.975,166.110 254.384 C 158.325 255.268,149.522 257.130,148.099 258.192 C 145.836 259.881,146.097 262.310,148.768 264.433 C 150.145 265.527,151.873 265.484,157.562 264.213 C 171.306 261.144,169.753 260.743,169.749 267.360 L 169.747 272.122 168.849 274.041 C 167.040 277.906,168.479 280.949,172.245 281.221 L 173.613 281.320 174.571 280.321 C 176.266 278.551,176.517 277.335,176.771 269.643 C 176.891 266.040,177.039 262.770,177.102 262.375 C 177.246 261.461,178.215 261.082,181.334 260.719 C 187.502 260.000,189.505 258.185,187.507 255.124 C 186.052 252.897,183.928 252.277,179.697 252.847 C 177.025 253.206,177.101 253.339,177.130 248.397 C 177.158 243.601,177.034 243.814,179.944 243.543 C 186.153 242.964,187.255 239.561,182.305 236.253 C 181.279 235.567,180.719 235.530,179.095 236.042 C 177.184 236.644,177.201 236.690,177.201 231.052 C 177.201 225.822,176.991 224.517,175.949 223.279 C 174.842 221.964,172.512 221.246,171.048 221.768 M83.296 222.811 C 82.985 222.919,81.309 223.162,79.571 223.351 C 75.726 223.768,68.851 224.728,68.182 224.940 C 65.592 225.762,69.002 229.030,73.363 229.906 C 75.758 230.386,75.843 230.468,75.079 231.570 C 74.666 232.167,74.422 232.869,74.335 233.715 C 74.166 235.350,74.595 235.221,65.890 236.253 C 63.706 236.512,62.871 237.609,63.998 238.737 C 65.380 240.118,67.755 240.814,72.412 241.202 C 74.721 241.394,74.944 241.584,74.944 243.357 L 74.944 244.695 72.777 244.695 L 70.611 244.695 69.588 243.557 C 67.493 241.228,65.950 241.493,65.363 244.284 C 65.201 245.058,64.689 245.566,63.923 245.714 C 61.869 246.111,61.239 246.340,60.779 246.858 C 59.725 248.043,60.405 249.076,62.923 250.115 C 65.546 251.198,66.237 252.038,66.098 253.976 L 66.027 254.966 64.108 255.214 C 61.782 255.514,61.434 255.652,61.260 256.345 C 60.803 258.169,65.357 260.198,71.106 260.731 C 74.764 261.071,74.719 261.043,74.714 262.951 C 74.709 265.316,74.163 265.512,68.923 265.027 C 63.847 264.557,61.950 266.538,64.809 269.323 C 70.040 274.418,87.996 272.964,92.483 267.081 C 95.063 263.699,91.109 261.770,84.989 263.426 C 82.558 264.084,80.813 264.292,80.813 263.924 C 80.813 263.423,81.567 261.247,81.838 260.966 C 82.036 260.760,83.170 260.541,85.020 260.350 C 91.567 259.677,93.673 259.063,94.123 257.699 C 94.657 256.081,93.907 254.959,91.483 253.748 C 88.794 252.405,89.415 250.068,92.659 249.316 C 95.605 248.632,96.458 247.667,95.662 245.919 C 95.229 244.970,92.430 243.115,91.430 243.115 C 90.505 243.115,90.136 242.878,89.411 241.819 C 88.794 240.916,88.884 240.756,90.204 240.424 C 91.596 240.073,93.363 239.163,93.538 238.705 C 94.012 237.472,93.460 236.040,92.171 235.160 C 90.178 233.797,89.935 233.750,86.400 234.047 C 81.151 234.488,81.214 234.496,80.227 233.239 C 79.764 232.650,79.020 231.838,78.575 231.437 L 77.765 230.706 80.671 230.703 C 88.406 230.694,90.439 229.755,90.318 226.249 C 90.244 224.087,85.832 221.927,83.296 222.811 M104.132 223.357 C 95.792 224.482,92.522 227.405,96.524 230.161 C 97.994 231.174,97.983 231.057,96.715 232.167 C 95.305 233.402,95.172 234.108,95.726 237.449 C 97.232 246.530,97.983 264.033,97.157 270.769 C 96.496 276.155,96.715 277.341,98.695 279.121 C 100.579 280.815,101.533 280.426,102.459 277.584 C 103.201 275.307,104.238 269.331,104.649 264.963 C 104.853 262.796,105.072 262.568,106.336 263.214 C 108.752 264.449,110.729 263.562,113.782 259.876 C 118.745 253.883,119.314 248.969,115.530 244.757 C 114.461 243.567,114.451 243.714,115.790 240.988 C 121.833 228.679,117.154 221.602,104.132 223.357 M238.262 223.339 C 237.226 223.796,225.907 224.639,215.237 225.054 C 207.684 225.347,205.585 225.903,206.279 227.427 C 206.765 228.493,212.050 230.700,214.118 230.700 C 215.339 230.700,215.200 230.930,212.007 234.181 C 207.862 238.403,206.546 240.422,206.546 242.560 C 206.546 244.793,208.905 246.994,212.256 247.891 C 213.690 248.274,213.732 248.219,210.214 250.585 C 204.115 254.688,201.354 257.496,203.012 257.912 C 203.303 257.985,204.095 258.724,204.774 259.554 C 207.407 262.777,210.197 263.335,221.558 262.909 L 222.686 262.867 222.757 264.447 C 222.937 268.451,222.181 271.723,220.901 272.478 C 220.043 272.985,219.969 273.137,219.753 274.839 C 219.312 278.330,226.172 281.139,229.073 278.655 C 231.480 276.596,232.215 273.248,231.840 266.056 C 231.699 263.340,231.637 261.064,231.703 260.998 C 231.944 260.758,241.217 258.483,241.986 258.476 C 242.421 258.471,243.081 258.632,243.454 258.832 C 246.051 260.228,246.326 260.323,247.443 260.216 C 253.491 259.635,248.485 249.702,240.452 246.346 C 237.980 245.313,236.590 247.102,237.327 250.368 C 237.597 251.564,237.106 251.895,233.239 253.124 C 228.022 254.782,222.104 255.978,219.103 255.981 C 217.396 255.982,217.526 255.820,220.832 253.822 C 222.224 252.981,225.186 251.077,227.414 249.590 C 229.642 248.104,232.537 246.234,233.847 245.435 C 238.330 242.702,239.378 241.060,238.095 238.778 C 236.465 235.878,232.935 236.007,228.486 239.129 C 225.463 241.251,224.623 241.512,219.607 241.889 C 215.322 242.211,216.089 240.142,221.910 235.670 C 222.958 234.865,224.344 233.667,224.991 233.007 L 226.166 231.807 231.988 231.589 C 241.588 231.230,244.546 230.319,244.510 227.730 C 244.477 225.355,240.318 222.432,238.262 223.339 M298.035 223.500 C 294.370 224.560,297.499 228.049,303.808 229.937 C 305.531 230.453,306.408 230.913,305.700 230.929 C 305.607 230.932,303.194 231.236,300.339 231.605 C 297.483 231.975,294.537 232.280,293.792 232.283 C 292.029 232.290,288.244 232.830,287.624 233.162 C 285.669 234.208,288.680 237.686,291.548 237.695 C 293.197 237.701,293.236 238.128,291.783 240.289 C 286.534 248.096,286.687 251.884,292.368 254.762 C 293.688 255.431,293.679 255.318,292.767 259.753 C 291.993 263.523,291.845 264.024,290.128 268.736 C 288.114 274.265,289.063 277.293,292.577 276.539 C 297.107 275.568,300.271 268.558,300.609 258.743 C 300.757 254.422,300.646 254.686,302.370 254.563 C 303.257 254.500,303.335 255.439,302.829 260.107 C 301.492 272.460,303.267 276.985,310.384 279.367 C 316.008 281.250,322.686 277.256,322.686 272.009 C 322.686 268.232,319.819 266.687,317.224 269.066 C 314.168 271.865,311.654 272.352,311.072 270.257 C 310.942 269.790,310.772 265.578,310.691 260.835 C 310.514 250.383,310.422 250.701,313.043 252.686 C 316.938 255.638,319.305 254.978,319.296 250.942 C 319.290 247.988,317.715 245.378,313.966 242.109 C 309.603 238.304,306.217 239.035,307.787 243.444 C 308.265 244.785,307.862 245.081,302.935 247.022 C 295.111 250.102,294.363 248.966,299.367 241.602 C 301.729 238.127,301.890 238.018,304.995 237.825 C 306.407 237.738,308.222 237.570,309.029 237.453 C 309.836 237.336,311.851 237.144,313.507 237.027 C 316.763 236.796,317.656 236.491,318.269 235.398 C 319.399 233.385,315.822 230.527,312.125 230.488 L 310.820 230.474 310.968 229.357 C 311.348 226.495,308.995 224.218,304.987 223.567 C 302.822 223.216,299.142 223.180,298.035 223.500 M275.056 226.444 C 272.557 227.759,264.164 238.363,263.411 241.158 C 262.584 244.228,264.505 246.971,267.958 247.650 L 269.262 247.907 267.346 250.082 C 261.078 257.198,260.619 259.678,265.104 262.187 C 268.638 264.163,272.409 263.616,280.549 259.946 C 283.746 258.504,283.824 258.493,285.360 259.272 C 286.366 259.782,286.588 259.819,287.168 259.579 C 291.067 257.964,285.384 249.511,279.938 248.826 L 278.503 248.646 280.306 247.125 C 281.298 246.289,282.735 245.143,283.501 244.580 C 286.795 242.155,287.406 240.275,285.499 238.435 C 283.792 236.788,282.110 236.804,280.023 238.484 C 278.734 239.522,278.049 239.829,275.544 240.494 C 270.587 241.810,270.688 241.288,276.901 233.470 C 280.031 229.530,280.165 228.674,277.928 226.902 C 276.751 225.969,276.143 225.872,275.056 226.444 M145.742 227.870 C 144.042 228.476,142.933 230.086,141.535 233.973 C 138.994 241.042,134.092 249.103,128.320 255.702 C 125.750 258.640,125.614 260.156,127.744 262.148 C 129.844 264.112,131.289 264.492,133.437 263.646 C 134.820 263.100,134.850 263.126,135.205 265.164 C 136.136 270.511,138.404 273.815,141.142 273.815 C 142.722 273.815,142.785 273.146,141.454 270.481 C 140.216 268.001,139.899 266.997,139.148 263.168 C 138.323 258.955,138.367 258.742,140.840 255.005 C 147.242 245.333,151.052 237.019,151.055 232.715 C 151.057 229.240,148.483 226.893,145.742 227.870 M109.240 231.799 C 109.836 232.914,105.948 242.342,104.530 243.218 C 104.267 243.381,104.245 243.290,103.630 239.432 C 103.091 236.048,102.292 234.126,100.905 232.873 C 99.355 231.473,99.416 231.451,105.015 231.408 C 108.708 231.379,109.031 231.409,109.240 231.799 M83.739 241.069 C 84.349 242.209,83.926 244.018,83.049 244.018 C 82.103 244.018,81.205 242.037,81.718 241.079 C 82.046 240.465,83.413 240.459,83.739 241.069 M108.307 248.162 C 110.263 248.499,110.447 248.626,110.263 249.514 C 109.869 251.412,105.866 256.964,105.303 256.393 C 105.181 256.269,104.740 249.773,104.740 248.103 L 104.740 246.516 105.767 247.209 C 106.445 247.667,107.307 247.991,108.307 248.162 M278.330 250.079 C 278.330 250.578,278.575 251.411,278.905 252.032 C 279.599 253.337,279.717 253.217,276.565 254.396 C 271.446 256.311,271.299 256.089,275.080 252.164 C 278.224 248.900,278.330 248.833,278.330 250.079 M83.615 251.747 C 83.880 253.118,83.548 253.950,82.736 253.950 C 82.167 253.950,81.821 251.211,82.327 250.705 C 82.811 250.222,83.415 250.711,83.615 251.747 M74.445 251.386 C 74.931 251.516,74.958 251.621,74.896 253.133 L 74.831 254.740 73.657 254.808 C 72.085 254.899,71.558 254.405,71.558 252.840 C 71.558 251.452,72.646 250.904,74.445 251.386 M280.926 261.203 C 279.783 261.842,279.675 262.518,280.379 264.623 C 282.644 271.401,287.374 273.467,287.354 267.671 C 287.342 264.367,283.029 260.027,280.926 261.203 M272.527 264.222 C 271.028 265.273,271.993 271.329,273.996 273.441 C 276.713 276.303,279.472 274.864,278.819 270.924 C 278.222 267.321,274.208 263.045,272.527 264.222 M264.260 264.831 C 264.047 265.172,263.892 266.300,263.807 268.118 C 263.737 269.641,263.509 271.742,263.301 272.787 C 262.385 277.401,265.924 280.329,268.130 276.782 C 270.003 273.770,269.703 268.331,267.539 266.068 C 266.160 264.625,264.727 264.085,264.260 264.831 M235.718 264.711 C 233.435 265.629,235.592 268.803,240.181 271.279 C 245.421 274.107,250.216 274.687,251.461 272.643 C 253.179 269.827,249.876 266.873,244.284 266.223 C 241.130 265.856,240.089 265.655,237.956 265.000 C 236.480 264.547,236.211 264.512,235.718 264.711 M209.774 266.385 C 206.622 269.998,205.419 270.998,203.086 271.941 C 200.254 273.084,200.082 274.634,202.535 276.895 C 206.095 280.177,211.049 278.216,213.867 272.410 C 215.751 268.529,215.781 267.246,214.009 266.282 C 211.990 265.183,210.797 265.212,209.774 266.385 " stroke="none" fill="#050505" fill-rule="evenodd"></path><path id="path1" d="M0.000 200.000 L 0.000 400.000 200.000 400.000 L 400.000 400.000 400.000 200.000 L 400.000 0.000 200.000 0.000 L 0.000 0.000 0.000 200.000 M94.662 62.529 C 112.161 64.475,128.693 70.038,138.561 77.303 C 140.045 78.395,140.280 78.951,139.581 79.723 C 139.001 80.363,138.710 80.256,135.913 78.373 C 125.812 71.571,108.215 66.013,92.913 64.792 C 86.662 64.293,85.586 64.466,85.164 66.034 C 79.451 87.236,80.006 110.990,86.414 119.582 L 86.961 120.316 92.239 120.316 C 95.222 120.316,97.517 120.405,97.517 120.519 C 97.517 120.631,98.525 126.904,99.758 134.459 C 100.991 142.013,102.524 151.902,103.165 156.433 C 104.355 164.845,104.511 165.719,104.675 164.898 C 104.725 164.650,105.523 160.638,106.448 155.982 C 107.373 151.326,109.580 141.422,111.351 133.973 L 114.571 120.429 119.429 120.368 L 124.287 120.307 127.592 134.364 C 129.410 142.095,131.640 152.204,132.548 156.828 C 133.456 161.453,134.252 165.237,134.316 165.237 C 134.381 165.237,134.921 161.758,135.517 157.506 C 136.113 153.253,137.660 143.219,138.955 135.207 C 140.250 127.196,141.309 120.567,141.309 120.478 C 141.309 120.389,143.696 120.316,146.614 120.316 C 151.201 120.316,151.919 120.362,151.919 120.658 C 151.919 120.846,151.263 124.528,150.461 128.841 C 147.410 145.249,141.761 175.842,141.761 175.955 C 141.761 176.019,138.614 176.072,134.767 176.072 L 127.774 176.072 127.652 175.564 C 124.808 163.670,120.297 142.712,119.407 137.265 C 119.090 135.321,118.914 135.474,118.523 138.036 C 118.015 141.359,115.824 151.921,113.137 163.995 L 110.475 175.959 103.594 176.019 L 96.713 176.079 91.678 149.767 L 86.644 123.455 85.687 122.470 C 82.882 119.584,80.430 113.798,79.590 108.084 C 77.739 95.480,79.223 77.228,83.178 63.966 C 83.769 61.982,86.579 61.630,94.662 62.529 M296.403 62.220 C 298.790 62.445,299.170 63.281,301.011 72.348 C 305.342 93.677,303.759 113.584,297.077 121.819 L 295.949 123.210 295.887 126.447 L 295.824 129.684 287.980 129.743 L 280.135 129.803 280.135 152.937 L 280.135 176.072 274.492 176.072 L 268.849 176.072 268.849 152.935 L 268.849 129.797 261.061 129.797 L 253.273 129.797 253.273 125.056 L 253.273 120.316 274.247 120.316 L 295.221 120.316 295.933 119.357 C 301.700 111.586,302.639 90.037,298.069 70.316 C 296.921 65.363,296.772 64.933,296.139 64.756 C 292.645 63.778,277.265 66.004,267.804 68.857 C 257.254 72.039,252.057 74.431,244.607 79.534 C 243.271 80.450,242.066 80.045,242.250 78.743 C 242.428 77.490,250.187 72.902,256.857 70.105 C 268.698 65.141,287.544 61.383,296.403 62.220 M290.124 72.867 C 292.012 74.634,293.595 82.790,293.836 91.986 C 294.085 101.524,292.380 107.155,287.765 112.035 C 286.149 113.745,284.350 113.715,284.745 111.985 C 285.714 107.733,283.493 104.899,280.464 106.523 C 278.559 107.544,277.274 105.093,278.310 102.412 C 279.205 100.094,278.035 98.503,275.601 98.729 C 273.601 98.915,273.292 98.607,273.400 96.536 L 273.476 95.070 271.747 94.917 C 270.796 94.833,269.831 94.823,269.603 94.894 C 269.374 94.965,269.044 94.934,268.870 94.824 C 268.678 94.704,268.332 94.725,267.997 94.878 C 267.460 95.122,266.366 94.330,266.366 93.698 C 266.366 92.560,276.387 81.695,281.490 77.300 C 287.807 71.859,288.608 71.447,290.124 72.867 M93.466 75.666 C 106.640 84.867,117.734 98.964,110.688 97.549 C 107.405 96.890,105.996 97.647,106.155 99.985 C 106.227 101.041,105.332 101.627,104.405 101.130 C 103.047 100.404,102.646 101.546,103.111 104.812 C 103.601 108.249,103.397 108.543,100.815 108.130 C 99.230 107.877,97.778 108.213,97.712 108.849 C 97.696 109.010,97.670 110.090,97.656 111.248 C 97.606 115.256,95.612 114.772,92.344 109.960 C 87.683 103.096,86.681 94.459,89.055 81.603 C 90.499 73.782,90.591 73.657,93.466 75.666 M287.923 75.202 L 287.246 75.618 287.935 75.620 C 288.313 75.620,288.745 75.743,288.894 75.892 C 289.241 76.239,289.230 75.874,288.875 75.259 C 288.605 74.792,288.590 74.791,287.923 75.202 M258.729 76.672 C 259.652 77.507,259.250 78.161,256.762 79.874 C 255.196 80.952,254.562 81.042,254.050 80.259 C 253.493 79.410,253.808 78.927,255.810 77.557 C 257.801 76.195,258.102 76.104,258.729 76.672 M285.229 79.894 C 284.802 80.365,284.894 81.037,285.449 81.497 C 285.731 81.731,285.779 81.603,285.779 80.615 C 285.779 79.308,285.770 79.296,285.229 79.894 M290.346 81.716 C 290.346 82.150,290.392 82.328,290.449 82.111 C 290.506 81.893,290.506 81.538,290.449 81.321 C 290.392 81.103,290.346 81.281,290.346 81.716 M290.572 83.521 C 290.572 83.956,290.618 84.134,290.675 83.916 C 290.732 83.699,290.732 83.344,290.675 83.126 C 290.618 82.909,290.572 83.087,290.572 83.521 M290.881 86.230 C 290.943 87.286,291.086 88.505,291.197 88.939 C 291.431 89.855,291.323 88.361,290.968 85.779 C 290.774 84.364,290.771 84.381,290.881 86.230 M288.350 90.519 C 288.350 92.195,288.386 92.881,288.429 92.043 C 288.473 91.205,288.473 89.834,288.429 88.995 C 288.386 88.157,288.350 88.843,288.350 90.519 M279.913 88.982 C 279.915 89.517,280.015 90.107,280.135 90.293 C 280.292 90.536,280.355 90.300,280.358 89.460 C 280.360 88.816,280.260 88.226,280.135 88.149 C 279.998 88.064,279.911 88.390,279.913 88.982 M93.462 91.591 C 93.457 91.995,93.549 92.325,93.666 92.325 C 94.053 92.325,94.095 91.988,93.781 91.419 L 93.470 90.858 93.462 91.591 M108.739 94.352 C 108.651 94.692,108.730 94.808,109.050 94.808 C 109.556 94.808,109.609 94.518,109.170 94.154 C 108.925 93.951,108.833 93.993,108.739 94.352 M236.505 119.880 C 239.891 120.654,242.844 122.157,246.028 124.728 C 248.245 126.518,248.349 126.013,244.887 130.254 L 242.140 133.618 241.394 132.962 C 228.064 121.259,212.760 136.448,218.148 156.032 C 221.348 167.663,233.391 171.165,241.893 162.937 L 243.042 161.826 246.057 165.376 L 249.072 168.925 247.306 170.591 C 234.017 183.128,211.891 176.692,207.001 158.868 C 200.704 135.915,216.326 115.271,236.505 119.880 M184.386 121.050 C 184.610 121.841,201.791 175.319,201.973 175.794 C 202.060 176.021,200.865 176.067,196.150 176.020 L 190.216 175.959 188.282 168.905 L 186.348 161.851 177.379 161.851 L 168.410 161.851 168.073 163.036 C 167.888 163.688,167.013 166.862,166.128 170.090 C 165.244 173.318,164.493 175.987,164.461 176.020 C 164.428 176.053,161.863 176.053,158.760 176.020 L 153.119 175.959 155.322 169.074 C 156.533 165.288,160.229 153.708,163.536 143.341 C 166.843 132.974,169.857 123.552,170.233 122.404 L 170.918 120.316 177.548 120.316 L 184.177 120.316 184.386 121.050 M177.072 129.482 C 176.259 132.937,173.534 143.368,172.360 147.517 C 171.552 150.372,170.888 152.785,170.886 152.878 C 170.883 152.971,173.812 153.047,177.395 153.047 L 183.909 153.047 182.243 147.009 C 181.327 143.688,179.909 138.330,179.091 135.102 C 177.544 128.994,177.328 128.393,177.072 129.482 M173.662 221.687 C 176.521 222.481,177.195 224.145,177.364 230.822 L 177.497 236.117 178.052 236.117 C 178.358 236.117,179.093 235.945,179.687 235.734 C 181.087 235.237,182.012 235.613,183.835 237.423 C 187.020 240.581,185.601 243.033,180.231 243.649 C 177.009 244.019,177.208 243.704,177.208 248.420 C 177.208 253.308,176.922 252.958,180.635 252.610 C 184.453 252.253,186.370 252.995,187.834 255.397 C 189.632 258.344,187.251 260.201,180.704 260.957 C 176.910 261.394,176.988 261.266,176.968 267.156 C 176.930 278.325,175.636 281.950,171.886 281.387 C 168.189 280.833,166.934 277.722,168.820 273.789 L 169.752 271.846 169.752 267.463 C 169.752 261.247,170.205 261.556,163.333 263.083 C 153.502 265.267,150.579 265.728,149.665 265.239 C 146.259 263.416,145.463 259.653,148.136 258.008 C 149.876 256.936,158.462 255.151,166.617 254.165 C 169.527 253.813,169.299 254.240,169.077 249.545 C 168.813 243.966,169.178 244.357,164.221 244.357 L 161.061 244.357 159.594 247.247 C 157.079 252.200,155.434 253.726,152.608 253.724 C 148.948 253.721,148.035 251.026,150.259 246.787 C 153.456 240.694,155.049 235.307,155.072 230.508 C 155.088 227.148,156.925 226.224,160.228 227.913 C 162.467 229.058,163.121 230.773,162.862 234.816 C 162.662 237.943,162.745 238.052,165.275 237.989 C 166.310 237.963,167.460 237.854,167.833 237.746 L 168.510 237.550 168.424 231.247 C 168.350 225.743,168.387 224.830,168.715 224.049 C 169.648 221.833,171.317 221.036,173.662 221.687 M88.306 223.526 C 89.867 224.536,90.330 225.199,90.466 226.618 C 90.756 229.630,88.820 230.558,81.622 230.858 L 78.255 230.999 78.809 231.470 C 79.114 231.729,79.646 232.324,79.990 232.792 C 81.136 234.349,81.120 234.345,85.583 233.946 L 89.546 233.591 90.766 234.201 C 94.886 236.262,94.961 238.964,90.935 240.305 C 89.962 240.630,89.165 240.965,89.165 241.050 C 89.165 241.286,90.287 242.886,90.471 242.912 C 90.560 242.924,91.048 242.954,91.556 242.980 C 93.218 243.061,96.027 245.482,96.027 246.832 C 96.027 248.172,94.988 248.969,92.594 249.463 C 90.787 249.836,90.214 250.407,90.195 251.853 L 90.181 252.909 91.761 253.733 C 94.077 254.941,94.867 256.422,94.096 258.113 C 93.622 259.153,90.331 259.963,83.747 260.657 C 81.879 260.854,81.435 261.299,81.110 263.304 C 80.942 264.338,81.219 264.348,84.425 263.429 C 89.356 262.014,93.454 262.714,93.454 264.971 C 93.454 269.862,80.702 273.891,70.671 272.171 C 65.435 271.273,62.137 267.993,64.206 265.742 L 64.981 264.898 69.680 264.898 L 74.379 264.898 74.577 263.583 C 74.707 262.713,74.692 262.087,74.532 261.736 C 74.270 261.160,74.312 261.170,70.003 260.730 C 66.378 260.361,63.247 259.224,61.568 257.667 C 60.257 256.451,61.532 255.079,63.974 255.079 C 66.058 255.079,66.422 254.636,65.895 252.738 C 65.578 251.596,64.922 251.024,63.171 250.358 C 59.410 248.929,59.142 246.542,62.663 245.827 C 64.757 245.401,64.960 245.273,65.245 244.197 C 65.950 241.529,67.435 241.186,69.438 243.228 L 70.877 244.695 72.797 244.695 L 74.718 244.695 74.718 243.115 C 74.718 242.246,74.681 241.535,74.637 241.535 C 73.503 241.535,67.516 240.766,66.866 240.537 C 62.627 239.041,62.215 236.621,66.110 236.097 C 68.237 235.811,73.143 235.214,73.368 235.214 C 73.834 235.214,74.266 234.439,74.266 233.603 C 74.266 232.631,74.521 231.994,75.214 231.231 C 75.775 230.615,75.639 230.532,73.215 230.002 C 70.222 229.348,67.269 227.433,67.269 226.146 C 67.269 225.047,68.025 224.700,71.332 224.284 C 73.008 224.074,75.243 223.760,76.298 223.588 C 77.353 223.416,79.182 223.205,80.361 223.119 C 81.541 223.033,82.709 222.877,82.957 222.771 C 84.160 222.261,86.963 222.657,88.306 223.526 M242.299 224.376 C 244.177 225.638,244.695 226.387,244.695 227.840 C 244.695 230.604,241.026 231.506,228.271 231.880 L 226.181 231.941 225.337 232.872 C 224.872 233.384,223.580 234.500,222.466 235.351 C 216.904 239.600,215.610 241.761,218.627 241.761 C 223.350 241.761,225.211 241.227,228.691 238.875 C 232.767 236.121,235.561 235.796,237.516 237.848 C 239.672 240.112,238.773 242.702,235.102 244.806 C 234.481 245.162,231.230 247.244,227.878 249.434 C 224.526 251.623,221.275 253.704,220.655 254.058 C 220.034 254.411,219.170 254.949,218.736 255.251 L 217.946 255.802 220.542 255.673 C 224.449 255.479,232.524 253.580,236.023 252.033 L 237.250 251.490 237.106 249.606 C 236.798 245.601,238.377 244.863,242.237 247.207 C 247.488 250.396,249.897 253.391,250.074 256.948 L 250.161 258.705 249.340 259.479 C 247.910 260.828,247.106 260.801,244.060 259.307 L 242.183 258.385 238.868 259.242 C 237.045 259.713,234.778 260.276,233.832 260.492 C 231.583 261.007,231.525 261.050,231.691 262.084 C 233.730 274.837,229.820 282.437,222.993 278.991 C 219.530 277.242,218.278 273.492,220.807 272.444 C 221.985 271.956,222.515 269.834,222.635 265.124 L 222.686 263.093 217.946 263.168 C 210.236 263.290,207.480 262.670,205.358 260.338 C 203.471 258.263,203.188 258.014,202.726 258.014 C 202.172 258.014,202.168 257.988,202.564 257.038 C 203.035 255.912,206.059 253.278,209.776 250.758 C 211.622 249.506,213.047 248.405,212.943 248.311 C 212.839 248.216,212.165 247.959,211.446 247.738 C 208.516 246.838,206.435 244.667,206.466 242.542 C 206.497 240.399,207.437 238.900,211.388 234.695 L 214.849 231.010 212.950 230.651 C 210.567 230.202,206.542 228.317,206.156 227.470 C 205.404 225.820,208.902 224.842,215.584 224.835 C 221.655 224.828,236.950 223.712,238.539 223.160 C 239.649 222.775,240.164 222.942,242.299 224.376 M112.024 223.463 C 119.082 225.268,120.528 232.143,115.779 241.317 C 114.726 243.352,114.702 243.702,115.551 244.632 C 119.434 248.884,118.895 253.962,113.925 259.932 C 110.943 263.515,108.707 264.542,106.398 263.389 C 105.132 262.757,104.991 262.907,104.750 265.147 C 103.266 278.943,101.496 282.620,98.166 278.827 C 96.546 276.982,96.383 275.937,97.001 271.369 C 97.874 264.907,97.088 245.892,95.600 237.472 C 94.996 234.060,95.139 233.416,96.840 231.862 L 97.630 231.141 97.097 230.751 C 95.172 229.341,94.714 228.676,94.782 227.388 C 94.937 224.472,106.065 221.939,112.024 223.463 M303.509 223.272 C 309.020 223.827,312.251 226.775,310.950 230.062 C 310.819 230.393,310.983 230.439,312.263 230.432 C 315.444 230.414,318.510 232.443,318.510 234.567 C 318.510 236.341,317.481 236.883,313.657 237.121 C 312.415 237.198,310.739 237.361,309.932 237.482 C 309.125 237.603,307.144 237.795,305.530 237.908 C 301.815 238.167,302.102 238.019,300.115 240.713 C 297.244 244.606,295.685 248.215,296.705 248.606 C 297.539 248.926,303.304 247.002,306.828 245.227 C 308.046 244.615,308.006 244.721,307.560 243.249 C 307.064 241.614,307.125 240.710,307.778 240.057 C 310.695 237.140,320.349 246.709,319.547 251.724 C 318.976 255.296,316.322 255.503,312.321 252.289 C 310.808 251.074,310.835 250.930,310.835 260.253 C 310.835 270.748,310.958 271.443,312.794 271.374 C 314.003 271.328,315.458 270.523,317.091 268.996 C 321.550 264.825,325.188 272.311,320.811 276.652 C 317.018 280.414,312.977 281.004,308.045 278.514 C 302.748 275.840,301.535 271.554,302.729 259.740 C 303.265 254.446,303.265 254.446,301.760 254.763 L 300.790 254.968 300.747 258.127 C 300.602 268.853,296.687 276.749,291.515 276.749 C 289.166 276.749,288.177 273.482,289.498 270.090 C 291.366 265.297,293.749 256.191,293.319 255.495 C 293.252 255.387,292.773 255.084,292.253 254.822 C 286.542 251.938,286.396 248.101,291.700 240.221 C 292.984 238.312,292.968 238.042,291.558 237.849 C 289.068 237.507,286.910 235.790,286.908 234.148 C 286.907 232.949,288.451 232.494,293.679 232.156 C 296.483 231.974,304.989 230.935,305.358 230.729 C 305.524 230.636,305.003 230.400,304.120 230.167 C 300.446 229.201,296.388 226.713,296.388 225.428 C 296.388 223.464,298.639 222.782,303.509 223.272 M277.845 226.693 C 280.057 228.459,280.028 229.851,277.722 232.619 C 275.669 235.082,272.009 239.997,272.009 240.289 C 272.009 241.057,272.593 241.081,275.226 240.420 C 278.195 239.676,278.275 239.640,280.346 238.129 C 282.555 236.517,284.482 236.761,285.991 238.843 C 287.465 240.878,286.824 242.239,283.070 245.042 C 282.263 245.645,280.952 246.702,280.157 247.392 L 278.712 248.646 280.056 248.776 C 285.082 249.266,290.886 257.371,287.703 259.456 C 286.950 259.950,286.188 259.912,285.208 259.334 C 284.024 258.636,283.529 258.726,280.034 260.274 C 272.599 263.568,268.767 264.208,265.740 262.663 C 260.245 259.859,260.652 257.543,268.150 248.956 L 269.061 247.912 267.968 247.767 C 265.764 247.475,263.361 245.379,263.053 243.480 C 262.654 241.022,266.512 234.840,272.140 228.921 C 275.144 225.761,276.175 225.359,277.845 226.693 M148.168 227.755 C 153.696 229.857,151.289 239.286,141.387 254.324 C 140.229 256.082,139.180 257.790,139.054 258.120 C 138.313 260.069,139.649 266.641,141.567 270.480 C 143.152 273.654,142.381 274.865,139.605 273.560 C 137.385 272.517,135.756 269.312,134.888 264.278 C 134.724 263.322,134.629 263.290,133.458 263.789 C 131.262 264.726,128.570 263.720,126.823 261.309 C 125.629 259.662,126.041 258.020,128.258 255.589 C 133.196 250.175,138.987 240.722,141.304 234.291 C 143.342 228.637,145.381 226.696,148.168 227.755 M102.032 231.539 C 99.880 231.648,99.795 231.723,100.820 232.600 C 102.510 234.046,103.472 236.587,104.066 241.170 C 104.354 243.393,104.356 243.399,104.765 242.863 C 106.263 240.898,108.979 234.443,109.091 232.582 C 109.161 231.419,107.936 231.238,102.032 231.539 M81.986 240.903 C 81.105 241.784,82.508 244.532,83.519 243.906 C 83.967 243.630,83.795 241.125,83.311 240.866 C 82.737 240.559,82.319 240.570,81.986 240.903 M104.865 248.445 C 104.942 249.424,105.073 251.632,105.155 253.351 L 105.305 256.476 105.911 255.998 C 107.293 254.909,110.158 250.387,110.158 249.294 C 110.158 248.673,109.458 248.307,108.272 248.307 C 107.555 248.307,106.583 247.899,105.353 247.082 L 104.725 246.665 104.865 248.445 M275.393 252.004 C 271.657 255.826,271.632 255.968,274.890 254.872 C 279.408 253.351,279.493 253.290,278.774 252.070 C 278.521 251.642,278.240 250.856,278.149 250.323 L 277.984 249.353 275.393 252.004 M82.318 250.941 C 82.081 251.177,82.142 253.682,82.388 253.835 C 83.201 254.337,83.893 252.472,83.384 251.147 C 83.246 250.787,82.597 250.662,82.318 250.941 M71.898 251.837 C 71.075 252.659,71.840 254.574,73.025 254.660 C 74.973 254.803,75.390 254.172,74.801 251.975 C 74.627 251.324,72.511 251.223,71.898 251.837 M283.414 261.628 C 286.166 263.203,287.459 265.146,287.467 267.720 C 287.483 273.163,283.046 271.843,280.634 265.688 C 279.025 261.581,280.237 259.811,283.414 261.628 M275.091 264.879 C 278.430 267.398,280.150 272.195,278.443 274.224 C 276.585 276.433,273.337 274.190,272.194 269.908 C 270.791 264.652,272.003 262.549,275.091 264.879 M266.063 264.803 C 269.780 266.602,270.822 273.852,267.866 277.349 C 266.946 278.438,266.148 278.627,264.982 278.031 C 263.028 277.031,262.621 275.760,263.223 272.534 C 263.451 271.314,263.641 269.270,263.647 267.991 C 263.662 264.456,264.114 263.860,266.063 264.803 M238.802 265.117 C 239.826 265.423,242.104 265.832,243.865 266.024 C 247.397 266.411,248.576 266.828,250.295 268.299 C 252.630 270.298,252.489 272.989,250.001 273.940 C 246.550 275.257,234.763 269.440,234.763 266.420 C 234.763 264.540,235.780 264.212,238.802 265.117 M213.694 266.029 C 215.688 266.918,215.881 267.624,214.882 270.377 C 212.203 277.756,206.637 280.691,202.392 276.964 C 199.980 274.847,200.256 272.869,203.111 271.802 C 204.853 271.150,207.074 269.444,208.547 267.627 C 210.672 265.003,211.096 264.872,213.694 266.029 " stroke="none" fill="#e9e9e9" fill-rule="evenodd"></path><path id="path2" d="M88.435 62.240 C 88.841 62.291,89.450 62.290,89.790 62.238 C 90.129 62.187,89.797 62.145,89.052 62.147 C 88.307 62.148,88.029 62.190,88.435 62.240 M104.063 84.495 C 104.063 84.534,104.393 84.864,104.797 85.229 L 105.530 85.892 104.867 85.158 C 104.249 84.474,104.063 84.321,104.063 84.495 M168.319 161.795 C 168.224 161.949,175.165 161.945,183.183 161.787 C 184.921 161.753,182.311 161.702,177.384 161.675 C 172.456 161.648,168.377 161.701,168.319 161.795 M80.079 230.859 C 80.358 230.913,80.815 230.913,81.095 230.859 C 81.374 230.805,81.146 230.761,80.587 230.761 C 80.028 230.761,79.800 230.805,80.079 230.859 M310.662 254.853 C 310.662 255.288,310.708 255.466,310.765 255.248 C 310.822 255.031,310.822 254.676,310.765 254.458 C 310.708 254.241,310.662 254.419,310.662 254.853 M218.341 255.912 C 218.558 255.969,218.914 255.969,219.131 255.912 C 219.348 255.855,219.170 255.809,218.736 255.809 C 218.301 255.809,218.124 255.855,218.341 255.912 M71.163 265.173 C 71.504 265.225,72.063 265.225,72.404 265.173 C 72.745 265.121,72.466 265.079,71.783 265.079 C 71.100 265.079,70.821 265.121,71.163 265.173 M150.395 265.393 C 150.612 265.449,150.968 265.449,151.185 265.393 C 151.402 265.336,151.225 265.289,150.790 265.289 C 150.356 265.289,150.178 265.336,150.395 265.393 M76.018 272.620 C 76.299 272.674,76.706 272.672,76.921 272.616 C 77.137 272.559,76.907 272.515,76.411 272.517 C 75.914 272.520,75.738 272.566,76.018 272.620 " stroke="none" fill="#747474" fill-rule="evenodd"></path><path id="path3" d="M285.773 80.859 C 285.713 81.443,285.748 81.837,285.850 81.735 C 285.952 81.633,286.001 81.155,285.959 80.673 L 285.882 79.797 285.773 80.859 M103.612 91.141 C 103.612 91.265,103.764 91.493,103.950 91.648 C 104.139 91.805,104.289 91.829,104.289 91.703 C 104.289 91.579,104.137 91.351,103.950 91.196 C 103.761 91.040,103.612 91.015,103.612 91.141 M300.979 93.454 C 300.979 94.385,301.019 94.766,301.067 94.300 C 301.116 93.835,301.116 93.073,301.067 92.607 C 301.019 92.142,300.979 92.523,300.979 93.454 M81.123 95.147 C 81.123 96.512,81.161 97.042,81.205 96.324 C 81.250 95.605,81.250 94.488,81.205 93.841 C 81.159 93.193,81.122 93.781,81.123 95.147 M78.858 94.921 C 78.859 95.914,78.899 96.292,78.947 95.762 C 78.994 95.231,78.994 94.418,78.945 93.956 C 78.897 93.493,78.858 93.928,78.858 94.921 M303.243 95.824 C 303.243 97.065,303.281 97.545,303.327 96.889 C 303.373 96.233,303.372 95.217,303.326 94.631 C 303.280 94.046,303.242 94.582,303.243 95.824 M300.980 96.953 C 300.981 97.946,301.021 98.324,301.069 97.793 C 301.116 97.262,301.116 96.450,301.067 95.987 C 301.019 95.525,300.979 95.959,300.980 96.953 M295.801 126.298 C 295.802 128.160,295.837 128.892,295.879 127.924 C 295.921 126.956,295.921 125.433,295.878 124.538 C 295.836 123.644,295.801 124.436,295.801 126.298 M268.960 152.822 L 268.962 175.959 274.492 175.959 L 280.023 175.959 280.024 152.765 L 280.026 129.571 279.967 152.709 L 279.908 175.847 274.492 175.847 L 269.077 175.847 269.018 152.765 L 268.958 129.684 268.960 152.822 M205.719 148.758 C 205.719 149.690,205.759 150.071,205.808 149.605 C 205.856 149.139,205.856 148.378,205.808 147.912 C 205.759 147.446,205.719 147.827,205.719 148.758 M216.995 148.194 C 216.996 148.815,217.040 149.042,217.092 148.699 C 217.144 148.356,217.143 147.848,217.089 147.570 C 217.035 147.293,216.993 147.573,216.995 148.194 M170.858 153.116 C 170.958 153.216,171.639 153.265,172.371 153.226 L 173.702 153.155 172.189 153.045 C 171.356 152.984,170.757 153.016,170.858 153.116 M174.210 153.207 C 174.489 153.261,174.946 153.261,175.226 153.207 C 175.505 153.153,175.277 153.109,174.718 153.109 C 174.159 153.109,173.931 153.153,174.210 153.207 M177.473 153.215 C 178.306 153.258,179.728 153.258,180.633 153.215 C 181.539 153.172,180.858 153.137,179.120 153.136 C 177.381 153.136,176.641 153.171,177.473 153.215 M96.672 175.621 C 96.751 175.912,97.722 175.960,103.630 175.965 L 110.497 175.970 103.736 175.905 C 98.691 175.856,96.925 175.769,96.777 175.561 C 96.633 175.357,96.605 175.374,96.672 175.621 M131.222 176.015 C 133.185 176.053,136.334 176.053,138.220 176.015 C 140.105 175.978,138.499 175.947,134.650 175.947 C 130.801 175.947,129.259 175.978,131.222 176.015 M156.052 176.015 C 157.642 176.054,160.181 176.054,161.695 176.015 C 163.209 175.976,161.907 175.944,158.804 175.944 C 155.700 175.945,154.461 175.976,156.052 176.015 M193.045 176.015 C 194.621 176.054,197.262 176.054,198.914 176.015 C 200.567 175.977,199.278 175.945,196.050 175.945 C 192.822 175.945,191.470 175.976,193.045 176.015 M214.955 224.995 C 215.420 225.044,216.182 225.044,216.648 224.995 C 217.113 224.946,216.733 224.907,215.801 224.907 C 214.870 224.907,214.489 224.946,214.955 224.995 M168.465 230.926 C 168.465 231.608,168.507 231.888,168.559 231.546 C 168.611 231.205,168.611 230.646,168.559 230.305 C 168.507 229.963,168.465 230.243,168.465 230.926 M78.273 230.859 C 78.552 230.913,79.010 230.913,79.289 230.859 C 79.568 230.805,79.340 230.761,78.781 230.761 C 78.222 230.761,77.994 230.805,78.273 230.859 M228.499 231.758 C 228.716 231.815,229.072 231.815,229.289 231.758 C 229.506 231.702,229.328 231.655,228.894 231.655 C 228.459 231.655,228.282 231.702,228.499 231.758 M168.680 236.456 C 168.682 236.953,168.729 237.129,168.783 236.848 C 168.837 236.568,168.835 236.161,168.778 235.945 C 168.722 235.730,168.677 235.959,168.680 236.456 M218.272 238.770 L 217.494 239.616 218.341 238.838 C 219.129 238.114,219.291 237.923,219.119 237.923 C 219.081 237.923,218.700 238.304,218.272 238.770 M177.045 248.871 C 177.046 249.616,177.089 249.894,177.139 249.488 C 177.189 249.082,177.188 248.473,177.136 248.134 C 177.085 247.794,177.044 248.126,177.045 248.871 M169.127 249.887 C 169.127 250.322,169.173 250.499,169.230 250.282 C 169.287 250.065,169.287 249.709,169.230 249.492 C 169.173 249.275,169.127 249.453,169.127 249.887 M104.793 250.339 C 104.793 250.773,104.839 250.951,104.896 250.734 C 104.953 250.516,104.953 250.161,104.896 249.944 C 104.839 249.726,104.793 249.904,104.793 250.339 M83.578 252.483 C 83.581 252.980,83.627 253.156,83.681 252.875 C 83.735 252.595,83.733 252.188,83.677 251.973 C 83.620 251.757,83.576 251.986,83.578 252.483 M127.864 256.038 L 127.201 256.772 127.935 256.109 C 128.338 255.744,128.668 255.414,128.668 255.375 C 128.668 255.201,128.482 255.355,127.864 256.038 M310.703 259.594 C 310.703 261.891,310.737 262.830,310.778 261.682 C 310.819 260.533,310.819 258.654,310.778 257.506 C 310.737 256.357,310.703 257.297,310.703 259.594 M97.348 256.546 C 97.351 257.043,97.397 257.219,97.451 256.939 C 97.505 256.658,97.503 256.252,97.446 256.036 C 97.390 255.820,97.346 256.050,97.348 256.546 M219.811 255.916 C 220.092 255.970,220.498 255.968,220.714 255.911 C 220.930 255.855,220.700 255.811,220.203 255.813 C 219.707 255.816,219.530 255.862,219.811 255.916 M88.318 262.684 C 88.536 262.741,88.891 262.741,89.108 262.684 C 89.326 262.627,89.148 262.581,88.713 262.581 C 88.279 262.581,88.101 262.627,88.318 262.684 M213.600 263.135 C 213.818 263.192,214.173 263.192,214.391 263.135 C 214.608 263.079,214.430 263.032,213.995 263.032 C 213.561 263.032,213.383 263.079,213.600 263.135 M302.327 266.027 C 302.329 266.772,302.371 267.050,302.421 266.644 C 302.471 266.238,302.470 265.629,302.419 265.289 C 302.367 264.950,302.326 265.282,302.327 266.027 M263.733 267.720 C 263.733 268.651,263.773 269.032,263.821 268.567 C 263.870 268.101,263.870 267.339,263.821 266.874 C 263.773 266.408,263.733 266.789,263.733 267.720 M176.811 268.397 C 176.811 268.956,176.855 269.185,176.909 268.905 C 176.963 268.626,176.963 268.169,176.909 267.889 C 176.855 267.610,176.811 267.839,176.811 268.397 M269.370 272.348 C 269.371 273.093,269.414 273.370,269.464 272.964 C 269.514 272.559,269.513 271.949,269.462 271.610 C 269.410 271.271,269.369 271.603,269.370 272.348 " stroke="none" fill="#6c6c6c" fill-rule="evenodd"></path><path id="path4" d="M86.628 62.236 C 86.909 62.290,87.315 62.288,87.531 62.232 C 87.747 62.175,87.517 62.131,87.020 62.134 C 86.524 62.136,86.347 62.182,86.628 62.236 M291.817 62.236 C 292.097 62.290,292.554 62.290,292.833 62.236 C 293.112 62.182,292.884 62.138,292.325 62.138 C 291.766 62.138,291.538 62.182,291.817 62.236 M294.754 62.236 C 295.035 62.290,295.441 62.288,295.657 62.232 C 295.873 62.175,295.643 62.131,295.147 62.134 C 294.650 62.136,294.474 62.182,294.754 62.236 M276.067 82.336 L 274.153 84.312 276.129 82.398 C 277.963 80.620,278.207 80.361,278.042 80.361 C 278.009 80.361,277.120 81.250,276.067 82.336 M288.568 91.309 C 288.567 92.427,288.605 92.912,288.653 92.388 C 288.700 91.864,288.700 90.950,288.654 90.357 C 288.607 89.763,288.568 90.192,288.568 91.309 M280.055 90.745 C 280.234 91.718,280.362 91.902,280.358 91.178 C 280.356 90.878,280.254 90.480,280.132 90.293 C 279.976 90.055,279.953 90.189,280.055 90.745 M303.225 91.535 C 303.227 92.156,303.270 92.383,303.322 92.040 C 303.374 91.697,303.373 91.189,303.319 90.911 C 303.266 90.633,303.223 90.914,303.225 91.535 M78.833 91.422 C 78.833 91.857,78.880 92.034,78.937 91.817 C 78.993 91.600,78.993 91.244,78.937 91.027 C 78.880 90.810,78.833 90.988,78.833 91.422 M273.416 95.937 C 273.416 96.371,273.462 96.549,273.519 96.332 C 273.576 96.115,273.576 95.759,273.519 95.542 C 273.462 95.324,273.416 95.502,273.416 95.937 M78.846 98.758 C 78.847 99.379,78.891 99.606,78.943 99.263 C 78.995 98.920,78.994 98.412,78.940 98.135 C 78.886 97.857,78.844 98.138,78.846 98.758 M303.222 99.323 C 303.222 99.881,303.266 100.110,303.320 99.831 C 303.373 99.551,303.373 99.094,303.320 98.815 C 303.266 98.536,303.222 98.764,303.222 99.323 M287.347 112.359 L 286.569 113.205 287.415 112.428 C 287.881 112.000,288.262 111.619,288.262 111.581 C 288.262 111.409,288.071 111.571,287.347 112.359 M214.323 126.016 L 213.431 126.975 214.391 126.083 C 215.283 125.253,215.454 125.056,215.283 125.056 C 215.246 125.056,214.814 125.488,214.323 126.016 M257.040 129.740 C 259.173 129.777,262.729 129.777,264.940 129.740 C 267.152 129.703,265.406 129.673,261.061 129.673 C 256.716 129.673,254.906 129.703,257.040 129.740 M283.902 129.740 C 286.036 129.777,289.591 129.777,291.803 129.740 C 294.014 129.703,292.269 129.673,287.923 129.673 C 283.578 129.673,281.768 129.703,283.902 129.740 M205.696 145.824 C 205.696 146.258,205.742 146.436,205.799 146.219 C 205.856 146.002,205.856 145.646,205.799 145.429 C 205.742 145.212,205.696 145.389,205.696 145.824 M242.200 162.698 L 241.422 163.544 242.269 162.766 C 243.057 162.042,243.219 161.851,243.047 161.851 C 243.009 161.851,242.628 162.232,242.200 162.698 M231.211 167.431 C 231.554 167.482,232.062 167.481,232.339 167.428 C 232.617 167.374,232.336 167.331,231.716 167.333 C 231.095 167.335,230.868 167.379,231.211 167.431 M248.326 169.386 L 247.781 170.090 248.427 169.476 C 248.783 169.139,249.028 168.822,248.972 168.772 C 248.917 168.723,248.626 168.999,248.326 169.386 M230.420 177.135 C 230.701 177.189,231.107 177.187,231.323 177.130 C 231.539 177.074,231.309 177.030,230.813 177.032 C 230.316 177.035,230.139 177.081,230.420 177.135 M220.824 224.761 C 221.041 224.817,221.397 224.817,221.614 224.761 C 221.831 224.704,221.653 224.657,221.219 224.657 C 220.784 224.657,220.607 224.704,220.824 224.761 M211.907 224.990 C 212.187 225.044,212.644 225.044,212.923 224.990 C 213.203 224.936,212.974 224.892,212.415 224.892 C 211.857 224.892,211.628 224.936,211.907 224.990 M177.292 231.828 C 177.292 233.753,177.326 234.540,177.369 233.578 C 177.411 232.616,177.411 231.041,177.369 230.079 C 177.326 229.117,177.292 229.904,177.292 231.828 M118.567 231.264 C 118.570 231.761,118.616 231.937,118.670 231.657 C 118.724 231.376,118.722 230.969,118.665 230.754 C 118.609 230.538,118.565 230.767,118.567 231.264 M81.888 230.859 C 82.168 230.913,82.575 230.911,82.790 230.855 C 83.006 230.798,82.777 230.754,82.280 230.757 C 81.783 230.759,81.607 230.805,81.888 230.859 M102.204 231.537 C 102.484 231.591,102.891 231.589,103.106 231.532 C 103.322 231.476,103.093 231.431,102.596 231.434 C 102.099 231.436,101.923 231.483,102.204 231.537 M230.643 231.766 C 231.047 231.816,231.707 231.816,232.111 231.766 C 232.514 231.716,232.184 231.675,231.377 231.675 C 230.570 231.675,230.240 231.716,230.643 231.766 M212.745 233.239 L 211.625 234.424 212.810 233.304 C 213.912 232.263,214.099 232.054,213.931 232.054 C 213.895 232.054,213.362 232.587,212.745 233.239 M293.851 232.214 C 294.132 232.268,294.539 232.266,294.754 232.209 C 294.970 232.153,294.740 232.109,294.244 232.111 C 293.747 232.114,293.571 232.160,293.851 232.214 M100.451 232.351 C 100.451 232.389,100.782 232.720,101.185 233.084 L 101.919 233.747 101.256 233.014 C 100.638 232.330,100.451 232.176,100.451 232.351 M168.450 233.183 C 168.450 233.617,168.496 233.795,168.553 233.578 C 168.610 233.361,168.610 233.005,168.553 232.788 C 168.496 232.571,168.450 232.748,168.450 233.183 M162.811 233.747 C 162.813 234.244,162.860 234.420,162.914 234.140 C 162.968 233.859,162.966 233.452,162.909 233.237 C 162.853 233.021,162.808 233.251,162.811 233.747 M83.800 242.212 C 83.800 242.647,83.846 242.824,83.903 242.607 C 83.960 242.390,83.960 242.034,83.903 241.817 C 83.846 241.600,83.800 241.778,83.800 242.212 M74.782 243.454 C 74.784 244.074,74.828 244.302,74.880 243.959 C 74.932 243.615,74.930 243.107,74.877 242.830 C 74.823 242.552,74.781 242.833,74.782 243.454 M178.953 243.726 C 179.234 243.780,179.640 243.778,179.856 243.722 C 180.072 243.665,179.842 243.621,179.345 243.624 C 178.849 243.626,178.672 243.672,178.953 243.726 M277.518 249.718 C 277.088 250.225,277.088 250.225,277.558 249.830 C 277.816 249.613,278.096 249.503,278.179 249.586 C 278.262 249.669,278.330 249.618,278.330 249.473 C 278.330 249.060,277.988 249.163,277.518 249.718 M246.727 250.677 C 247.148 251.112,247.543 251.467,247.605 251.467 C 247.668 251.467,247.374 251.112,246.953 250.677 C 246.531 250.243,246.136 249.887,246.074 249.887 C 246.012 249.887,246.306 250.243,246.727 250.677 M319.470 251.129 C 319.473 251.625,319.519 251.802,319.573 251.521 C 319.627 251.240,319.625 250.834,319.568 250.618 C 319.512 250.402,319.468 250.632,319.470 251.129 M275.719 251.524 L 275.056 252.257 275.790 251.594 C 276.474 250.976,276.627 250.790,276.453 250.790 C 276.414 250.790,276.084 251.120,275.719 251.524 M310.671 253.273 C 310.671 253.832,310.715 254.060,310.769 253.781 C 310.823 253.502,310.823 253.045,310.769 252.765 C 310.715 252.486,310.671 252.714,310.671 253.273 M97.348 258.578 C 97.351 259.074,97.397 259.251,97.451 258.970 C 97.505 258.689,97.503 258.283,97.446 258.067 C 97.390 257.852,97.346 258.081,97.348 258.578 M231.893 265.576 C 231.895 266.196,231.939 266.424,231.990 266.080 C 232.042 265.737,232.041 265.229,231.987 264.952 C 231.934 264.674,231.891 264.955,231.893 265.576 M232.122 269.977 C 232.122 270.660,232.164 270.940,232.216 270.598 C 232.268 270.257,232.268 269.698,232.216 269.357 C 232.164 269.015,232.122 269.295,232.122 269.977 M176.811 270.880 C 176.811 271.439,176.855 271.668,176.909 271.388 C 176.963 271.109,176.963 270.652,176.909 270.372 C 176.855 270.093,176.811 270.322,176.811 270.880 M74.549 272.616 C 74.766 272.673,75.121 272.673,75.339 272.616 C 75.556 272.559,75.378 272.513,74.944 272.513 C 74.509 272.513,74.331 272.559,74.549 272.616 M97.743 278.400 C 97.743 278.439,98.073 278.769,98.476 279.134 L 99.210 279.797 98.547 279.063 C 97.929 278.379,97.743 278.226,97.743 278.400 " stroke="none" fill="#949494" fill-rule="evenodd"></path></g></svg>